<?xml version="1.0" encoding="utf-8"?>
<!-- Generator: Adobe Illustrator 23.0.1, SVG Export Plug-In . SVG Version: 6.00 Build 0)  -->
<svg version="1.1" id="Layer_1" xmlns="http://www.w3.org/2000/svg" xmlns:xlink="http://www.w3.org/1999/xlink" x="0px" y="0px"
	 viewBox="0 0 1796.5 1094.8" style="enable-background:new 0 0 1796.5 1094.8;" xml:space="preserve">
<style type="text/css">
	.st0{fill:#323E48;}
	.st1{fill-rule:evenodd;clip-rule:evenodd;fill:#323E48;}
</style>
<g>
	<path class="st0" d="M397.5,487.2c-39.8,0-74.6-13.8-104.5-41.5l-4.5,21.4c-1.3,8.7-6.2,13-14.9,13h-28c-8.7,0.1-13-4.2-13-12.9V13
		c0-8.7,4.3-13,13-13h38.3c8.7,0,13,4.3,13,13v169.4c32.4-27.2,67.5-40.9,105.1-40.9c41.9,0,75,15.1,99.2,45.4
		c24.2,30.3,36.3,71.8,36.3,124.5c0,53.2-12.7,95.8-38.3,127.8C473.8,471.3,439.8,487.2,397.5,487.2z M382.6,435.4
		c59.7,0,89.6-40.2,89.6-120.7c0-41.1-7.3-71.6-21.7-91.5c-14.5-19.9-36.6-29.8-66.5-29.8c-30.7,0-59.7,9.9-86.9,29.8v181
		C324.2,425,352.7,435.4,382.6,435.4z"/>
	<path class="st0" d="M737.5,489.9c-49.3,0-87.8-15.4-115.5-46.1c-27.7-30.7-41.5-73.6-41.5-128.4c0-54.5,13.8-97.1,41.5-127.8
		c27.6-30.7,66.2-46.1,115.5-46.1s87.8,15.4,115.5,46.1c27.6,30.7,41.5,73.3,41.5,127.8c0,55-13.8,97.8-41.5,128.4
		S786.7,489.9,737.5,489.9z M737.5,437.9c61,0,91.5-40.8,91.5-122.7c0-81.3-30.5-122-91.5-122s-91.5,40.7-91.5,122
		C645.9,397,676.5,437.9,737.5,437.9z"/>
	<path class="st0" d="M1075.5,487.2c-28.6,0-53.2-7.1-73.9-21.4c-20.8-14.3-36.6-34.2-47.7-59.7c-11-25.5-16.6-55.1-16.6-88.9
		c0-35.9,5.9-67.1,17.5-93.8c11.7-26.6,28.1-46.9,49.3-61c21.2-14.1,45.6-21.1,73.3-21.1c36.8,0,69.9,12.1,99.2,36.3V13
		c0-8.7,4.3-13,13-13h38.3c8.7,0,13,4.3,13,13v454.2c0,8.7-4.3,13-13,13h-28.6c-3.9,0-7-0.9-9.4-2.6c-2.4-1.7-4.2-5.2-5.5-10.4
		l-5.2-20.8c-14.3,13-30.5,23-48.6,30.1C1112.5,483.7,1094,487.2,1075.5,487.2z M1094.9,435.4c26.8,0,54-9.9,81.7-29.8V221.9
		c-13.4-9.9-26.9-17.2-40.5-21.7c-13.6-4.5-28.7-6.8-45.1-6.8c-58.8,0-88.2,40.7-88.2,122C1002.8,395.3,1033.5,435.4,1094.9,435.4z"
		/>
	<path class="st0" d="M1397.9,488.5c-30.7,0-55.3-8.7-73.6-26.3c-18.4-17.5-27.6-41-27.6-70.4c0-31.5,11.2-56.8,33.7-75.6
		c22.5-18.8,52.8-28.2,90.8-28.2c24.2,0,51.5,3.7,81.7,11v-42.8c0-23.3-5.3-39.8-15.9-49.3c-10.6-9.5-28.7-14.3-54.2-14.3
		c-29.8,0-59,4.3-87.6,13c-9.9,3-16.2,4.5-18.8,4.5c-5.2,0-7.8-3.9-7.8-11.7v-17.5c0-5.6,0.9-9.8,2.6-12.3c1.7-2.6,5.2-5,10.4-7.1
		c13.4-6.1,30.4-10.9,50.9-14.6c20.5-3.7,41-5.5,61.3-5.5c41.1,0,71.4,8.5,90.8,25.6s29.2,43.2,29.2,78.2V467c0,8.7-4.3,13-13,13
		H1523c-8.2,0-13-4.1-14.3-12.3l-3.3-21.4c-15.5,13.4-32.8,23.8-51.6,31.2C1435.2,484.9,1416.5,488.5,1397.9,488.5z M1413.5,439.9
		c14.3,0,29.2-2.8,44.7-8.4c15.5-5.6,30.5-13.8,44.7-24.7v-66.2c-23.3-5.6-46.3-8.4-68.8-8.4c-48.9,0-73.3,18.8-73.3,56.5
		c0,16.5,4.5,29.1,13.6,37.9C1383.6,435.4,1396.6,439.9,1413.5,439.9z"/>
</g>
<g>
	<path class="st1" d="M1623.9,872.5c-196.7,145.1-481.8,222.3-727.4,222.3c-344.1,0-654-127.2-888.5-338.9
		c-18.4-16.6-2-39.3,20.1-26.5c253,147.2,565.9,235.9,889,235.9c218,0,457.6-45.2,678.1-138.8
		C1628.6,812.4,1656.5,848.4,1623.9,872.5"/>
	<path class="st1" d="M1705.8,779.1c-25.2-32.2-166.3-15.2-229.7-7.7c-19.2,2.3-22.2-14.5-4.9-26.6
		c112.6-79.1,297.1-56.2,318.5-29.8c21.6,26.7-5.7,211.6-111.2,299.9c-16.2,13.5-31.6,6.3-24.5-11.6
		C1677.8,944,1731,811.3,1705.8,779.1"/>
</g>
</svg>
