<?xml version="1.0" encoding="utf-8"?>
<!-- Generator: Adobe Illustrator 19.0.0, SVG Export Plug-In . SVG Version: 6.00 Build 0)  -->
<svg version="1.1" id="Layer_1" xmlns="http://www.w3.org/2000/svg" xmlns:xlink="http://www.w3.org/1999/xlink" x="0px" y="0px"
	 viewBox="0 0 500 500" style="enable-background:new 0 0 500 500;" xml:space="preserve">
<style type="text/css">
	.st0{fill:#D2208B;}
</style>
<g id="XMLID_1_">
	<path id="XMLID_2_" class="st0" d="M67.5,213.7c1.8,0,3.7,0,5.5,0c0,16.1,0,31.8,0,47.8c0,1.5,0,2.9,1.1,4c0.7,1.1,2.2,0.7,3.3,1.1
		c9.1,0,18.3,0,27.7,0c0,1.8,0,3.6,0,5.5c-9.9,0-20.1,0-29.9,0c-2.2,0-4.4-0.4-5.8-2.2c-1.5-1.5-1.5-3.3-1.5-5.1
		C67.5,247.7,67.5,230.9,67.5,213.7z"/>
	<path id="XMLID_3_" class="st0" d="M74.8,213.7c1.8,0,3.6,0,5.5,0c0,13.9,0,27.4,0,41.2c0,1.1,0,2.6,1.1,3.3
		c0.7,0.7,2.2,0.7,3.3,0.7c6.9,0,13.5,0,20.4,0c0,1.8,0,3.6,0,5.5c-8.4,0-16.8,0-25.2,0c-1.5,0-2.9,0-3.7-0.7
		c-1.1-0.7-1.1-2.2-1.1-3.3C74.8,244.7,74.8,229.4,74.8,213.7z"/>
	<path id="XMLID_4_" class="st0" d="M82.1,213.7c1.8,0,3.7,0,5.5,0c0,11.7,0,23.4,0,35.4c0,1.1,0.4,2.6,1.5,2.6
		c5.1,0.4,10.6,0,15.7,0c0,1.8,0,3.7,0,5.5c-6.6,0-13.1,0-19.7,0c-1.8,0.4-2.9-1.5-2.9-3.3C82.1,240.4,82.1,227.2,82.1,213.7z"/>
	<path id="XMLID_5_" class="st0" d="M89.4,213.7c1.8,0,3.7,0,5.5,0c0,10.2-0.4,20.1,0,30.3c3.3,0.7,6.6,0.4,9.9,0.4
		c0,1.8,0,3.6,0,5.5c-4.4,0-8.4,0-12.8,0c-1.1,0-2.6-0.4-2.6-1.8C89.4,236.3,89.4,225,89.4,213.7z"/>
	<path id="XMLID_6_" class="st0" d="M96.7,213.7c11,0,21.5,0,32.5,0c2.2-0.4,3.6,1.5,4.4,3.3c0.7,2.2,0.4,4.4,0.4,6.2
		c0,16.1,0,32.1,0,48.2c-1.8,0-3.6,0-5.5,0c0-16.4,0-32.9,0-48.9c0-1.5-0.4-2.9-1.8-3.6c-1.1-0.4-2.2-0.4-3.3-0.4
		c-9.1,0-17.9,0-27,0C96.7,217,96.7,215.5,96.7,213.7z"/>
	<path id="XMLID_7_" class="st0" d="M152.2,213.7c2.2,0,4.7,0,6.9,0c0,15.7,0,31,0,46.7c-0.4,2.2,1.5,4.4,4,4.4c5.8,0,11.3,0,17.2,0
		c0,2.2,0,4.4,0,6.6c-7.3,0-15,0-22.3,0c-1.8,0-4.4-0.4-5.1-2.6c-0.4-1.8-0.4-3.6-0.4-5.1C152.2,247.3,152.2,230.5,152.2,213.7z"/>
	<path id="XMLID_8_" class="st0" d="M182.8,213.7c2.2,0,4.7,0,6.9,0c0,2.2,0,4,0,6.2c-2.2,0-4.7,0-6.9,0
		C182.8,218.1,182.8,215.9,182.8,213.7z"/>
	<path id="XMLID_9_" class="st0" d="M425.6,213.7c2.2,0,4.7,0,6.9,0c0,19.3,0,38.7,0,58c-2.2,0-4.7,0-6.9,0
		C425.6,252.4,425.6,233.1,425.6,213.7z"/>
	<path id="XMLID_10_" class="st0" d="M96.7,220.6c8.8,0,17.5,0,26.6,0c1.8,0,3.6,1.5,3.3,3.3c0,16.1,0,31.8,0,47.8
		c-1.8,0-3.7,0-5.1-0.4c-0.4-14.6,0-28.8-0.4-43.4c0-1.5-1.5-2.2-2.9-2.2c-7.3,0-14.6,0-21.5,0C96.7,224.3,96.7,222.5,96.7,220.6z"
		/>
	<path id="XMLID_11_" class="st0" d="M96.7,227.9c6.6,0,13.1,0,20.1,0c1.8,0,2.9,1.5,2.6,3.3c0,13.5,0,27,0,40.5c-1.8,0-3.7,0-5.5,0
		c0-11.7,0-23.4,0-35.4c0-0.7,0-1.5-0.4-2.6c-0.7-0.7-2.2-0.7-2.9-0.7c-4.7,0-9.5,0-13.9,0C96.7,231.6,96.7,229.8,96.7,227.9z"/>
	<path id="XMLID_12_" class="st0" d="M182.8,228.3c2.2,0,4.7,0,6.9,0c0,14.6,0,28.8,0,43.4c-2.2,0-4.7,0-6.9,0
		C182.8,257.1,182.8,242.9,182.8,228.3z"/>
	<path id="XMLID_13_" class="st0" d="M192.3,228.3c2.6,0,5.1,0,8,0c4.7,11.7,9.1,23,13.9,34.7c4.7-11.7,9.1-23,13.9-34.7
		c2.6,0,5.5,0,8,0c-5.5,13.9-10.9,28.1-16.8,42c-0.4,0.4-0.4,1.5-1.1,1.5c-2.9,0-5.5,0-8.4,0C204,257.1,198.2,242.9,192.3,228.3z"/>
	<path id="XMLID_14_" class="st0" d="M282.5,238.2c0-4.7,3.6-9.1,8.4-9.5c2.9-0.4,5.8,0,8.8,0c0,2.2,0,4.7,0,6.9
		c-2.6,0-4.7-0.4-7.3,0c-1.8,0.4-2.9,2.6-2.9,4.4c0,10.6,0,21.2,0,31.8c-2.2,0-4.4,0-6.9,0C282.5,260.8,282.5,249.5,282.5,238.2z"/>
	<path id="XMLID_15_" class="st0" d="M247.4,228.3c8-3.6,17.9-1.8,24.1,4c5.1,4.4,7.7,11.3,7.7,17.9c-13.1,0-25.9,0-39.1,0
		c0.7,5.8,4.7,11.7,10.2,13.9c6.6,2.6,14.2,0.4,18.6-5.1c1.1-1.5,1.8-3.3,2.6-4.7c2.2,0,4.4,0,6.6,0c-1.5,4.7-4,9.5-8,12.4
		c-5.1,4-12,5.5-18.3,4.4c-6.6-1.1-12.4-5.5-15.3-11c-2.9-4.7-3.6-10.6-2.6-16.1C235.8,237.1,240.9,231.2,247.4,228.3z M248.2,235.2
		c-3.7,1.8-5.8,5.5-7.7,9.1c10.2,0,20.8,0,31,0c-1.1-2.9-2.6-5.5-5.1-7.3C261.7,232.3,254,231.6,248.2,235.2z"/>
	<path id="XMLID_18_" class="st0" d="M420.8,241.4c-3.3-9.9-14.6-16.8-24.8-15c-6.6,0.7-12.4,5.1-16.1,10.6
		c-4.7-7.7-13.9-12-22.6-10.6c-6.6,0.7-12.8,5.1-16.4,10.6c-3.6-5.5-9.5-9.5-16.1-10.6c-8-1.5-16.8,2.2-21.9,9.1
		c-2.9,4-4.4,9.1-4.4,13.9c0,12.4,0,24.5,0,36.9c2.2,0,4.7,0,6.9,0c0-6.9,0-13.9,0-20.8c4.4,4,10.2,6.6,16.4,6.6
		c7.7,0,15-4.4,19-10.6c4.4,7.3,13.1,11.7,21.5,10.6c6.9-0.7,13.5-4.7,17.5-10.6c2.2,3.7,5.5,6.6,9.1,8.4c7.3,3.6,16.8,3.3,23.4-1.8
		C420.8,262.3,424.5,250.9,420.8,241.4z M324.5,264.8c-8,1.8-16.8-4-18.6-12.4c-2.2-8.4,3.6-17.5,12-19c8.4-2.2,17.5,3.7,19,12
		C339.4,253.9,333.2,263.7,324.5,264.8z M363.1,264.8c-8,1.8-16.8-4-18.3-12c-2.2-8.4,3.6-17.5,12-19.3c8.4-2.2,17.5,3.7,19.3,12
		C378.1,254.2,371.9,263.7,363.1,264.8z M401.8,264.8c-8.4,1.5-17.2-4.7-18.3-12.8c-1.5-7.7,3.6-16.4,11.3-18.3
		c8.8-2.9,18.6,3.3,20.1,12.4C417.2,254.6,410.6,263.7,401.8,264.8z"/>
	<path id="XMLID_23_" class="st0" d="M96.7,235.2c5.1,0,9.9-0.4,15,0.4c0.4,1.1,0.7,2.6,0.7,4c0,10.9,0,21.5,0,32.5
		c-1.8,0-3.6,0-5.5,0c0-10.2,0-20.4,0-30.7c-3.3-0.7-6.6-0.4-9.9-0.4C96.7,238.9,96.7,237.1,96.7,235.2z"/>
</g>
</svg>
