<svg
    version="1.1"
    id="Layer_1"
    xmlns="http://www.w3.org/2000/svg"
    x="0px"
    y="0px"
    viewBox="0 0 792 612"
    >
    <g>
        <g>
        <path
            className="st0"
            d="M548.97,188.2c0,0.44-0.01,0.81-0.04,1.11c-0.09,1.02-0.13,1.84-0.1,2.46l0.03,2.46
        c-2.96-0.12-8.31-0.17-16.06-0.17h-1.46c-1.02,0-1.53-0.1-1.53-0.29c0-0.2,0.16-0.29,0.49-0.29c1.16-0.02,1.9-0.19,2.22-0.48
        c0.21-0.19,0.31-0.74,0.31-1.66v-18.77c0-0.79-0.07-1.27-0.21-1.45c-0.28-0.35-0.71-0.51-1.3-0.49h-0.88
        c-0.26,0-0.39-0.09-0.39-0.26c0-0.17,0.16-0.26,0.49-0.26c0.19,0,0.37,0,0.56,0h8.81c0.12,0,0.24,0,0.38,0
        c0.23,0,0.35,0.09,0.35,0.28c0,0.21-0.3,0.31-0.9,0.31c-0.85,0-1.36,0.1-1.51,0.31c-0.15,0.21-0.23,1.12-0.23,2.74v8.26
        c0,1.69,0.05,5.47,0.14,11.34c0.44,0.02,0.94,0.04,1.49,0.04c2.43,0,4.1-0.09,5.03-0.28c1.46-0.3,2.45-1.04,2.98-2.22
        c0.28-0.6,0.53-1.56,0.76-2.88c0.07-0.37,0.17-0.56,0.31-0.56C548.88,187.43,548.97,187.69,548.97,188.2z"
        />
        <path
            className="st0"
            d="M576.16,182.09c0,3.47-1.08,6.4-3.24,8.79s-4.82,3.59-7.96,3.59c-3.08,0-5.71-1.21-7.91-3.64
        c-2.2-2.43-3.3-5.35-3.3-8.78c0-3.52,1.09-6.45,3.28-8.81s4.9-3.54,8.13-3.54c3.12,0,5.73,1.18,7.84,3.55
        C575.11,175.63,576.16,178.58,576.16,182.09z M570.06,182.63c0-4.6-0.54-7.99-1.63-10.18c-0.72-1.43-1.85-2.15-3.4-2.15
        c-1.57,0-2.83,1-3.76,3.01c-0.94,2.01-1.4,4.7-1.4,8.07c0,4.9,0.83,8.55,2.5,10.98c0.69,1.02,1.7,1.52,3.02,1.52
        c1.53,0,2.6-0.73,3.23-2.18C569.57,189.44,570.06,186.41,570.06,182.63z"
        />
        <path
            className="st0"
            d="M597.11,187.23c0,2.1-0.75,3.84-2.24,5.22c-1.49,1.37-3.4,2.06-5.71,2.06c-1.41,0-3.35-0.47-5.83-1.42
        c-0.19-0.07-0.35-0.11-0.49-0.11c-0.39,0-0.69,0.42-0.9,1.25c-0.07,0.26-0.16,0.38-0.28,0.38c-0.19,0-0.28-0.16-0.28-0.49
        c0-0.3,0.06-0.83,0.17-1.6c0.09-0.62,0.14-1.35,0.14-2.19c0-0.67-0.01-1.2-0.03-1.59c-0.05-0.79-0.07-1.25-0.07-1.39
        c0-0.37,0.12-0.55,0.35-0.55s0.44,0.5,0.63,1.49c0.32,1.71,1.05,3.04,2.18,3.99c1.23,1.02,2.54,1.53,3.96,1.53
        c1.25,0,2.3-0.39,3.16-1.18c0.85-0.79,1.28-1.75,1.28-2.88c0-0.97-0.28-1.75-0.83-2.32c-0.42-0.42-1.76-1.24-4.02-2.46
        c-2.52-1.34-4.23-2.68-5.13-4.02c-0.83-1.23-1.25-2.68-1.25-4.37c0-1.99,0.71-3.63,2.12-4.94c1.41-1.31,3.19-1.96,5.34-1.96
        c1.16,0,2.39,0.28,3.71,0.83c0.44,0.19,0.75,0.28,0.94,0.28c0.35,0,0.58-0.3,0.69-0.9c0.05-0.21,0.15-0.31,0.31-0.31
        c0.23,0,0.35,0.15,0.35,0.45c0,0.12-0.02,0.44-0.07,0.97s-0.07,0.97-0.07,1.32c0,1.2,0.05,2.22,0.14,3.05
        c0.02,0.07,0.04,0.16,0.04,0.28c0,0.21-0.09,0.31-0.28,0.31c-0.21,0-0.42-0.37-0.62-1.11c-0.21-0.74-0.57-1.47-1.09-2.2
        c-0.52-0.73-1.05-1.26-1.58-1.58c-0.7-0.41-1.5-0.62-2.43-0.62c-1.3,0-2.32,0.31-3.09,0.94c-0.76,0.63-1.15,1.48-1.15,2.57
        c0,0.95,0.36,1.79,1.08,2.51c0.72,0.73,2.09,1.66,4.13,2.79c2.5,1.39,4.15,2.5,4.96,3.33
        C596.52,183.8,597.11,185.35,597.11,187.23z"
        />
        </g>
        <g>
        <path
            className="st0"
            d="M506.19,338.86c0,0.19-0.17,0.29-0.52,0.31c-1.04,0.05-1.7,0.17-1.98,0.36c-0.28,0.2-0.59,0.78-0.94,1.75
        c-0.21,0.53-0.52,1.34-0.94,2.43c-0.3,0.9-0.78,2.29-1.42,4.16c-0.32,0.88-0.82,2.21-1.47,3.99l-1.71,4.75
        c-1.19,3.36-1.85,5.29-1.99,5.8c-0.09,0.3-0.2,0.45-0.31,0.45c-0.14,0-0.26-0.11-0.35-0.33c-0.09-0.22-0.36-1.01-0.8-2.38
        c-0.58-1.8-1.42-4.05-2.53-6.73l-1.18-2.84c-2.31,4.95-3.97,8.88-4.99,11.79c-0.12,0.32-0.24,0.49-0.38,0.49
        c-0.09,0-0.38-0.61-0.87-1.84l-4.23-11.05c-1.02-2.78-2.32-6.09-3.92-9.94c-0.16-0.42-0.43-0.67-0.8-0.76
        c-0.21-0.07-0.61-0.1-1.21-0.1c-0.6,0-0.9-0.11-0.9-0.31c0-0.19,0.16-0.28,0.49-0.28c-0.02,0,0.36,0,1.14,0c0.81,0,1.5,0,2.08,0
        h1.32h3.51c0.11,0,0.31,0,0.59,0c0.23,0,0.39,0,0.49,0c0.3,0,0.45,0.12,0.45,0.34c0,0.21-0.37,0.3-1.11,0.28
        c-0.39,0-0.59,0.1-0.59,0.31c0,0.09,0.02,0.2,0.07,0.31c0.51,1.4,1.28,3.49,2.32,6.27l3.56,9.17l2.43-5.55
        c-0.34-1.01-1-2.83-1.97-5.45c-0.19-0.41-0.44-1.04-0.77-1.88c-0.07-0.21-0.19-0.52-0.35-0.96c-0.4-1.05-0.72-1.68-0.98-1.9
        c-0.26-0.22-0.79-0.32-1.61-0.32c-0.23-0.02-0.35-0.13-0.35-0.31c0-0.21,0.22-0.31,0.66-0.31c-0.07,0,0.05,0,0.36,0
        c0.31,0,0.83,0,1.54,0h12.11c0.44-0.02,0.66,0.08,0.66,0.31c0,0.18-0.17,0.27-0.52,0.27c-1.64-0.02-2.59,0.26-2.84,0.83
        c-0.39,0.62-1.21,2.38-2.46,5.28c0.8,2.08,2.08,5.37,3.85,9.87c0.37-0.95,0.77-2,1.19-3.15c0.37-0.97,0.98-2.62,1.82-4.96
        c0.54-1.55,0.99-2.81,1.36-3.78c0.63-1.64,0.94-2.7,0.94-3.19c0-0.46-0.23-0.75-0.69-0.87c-0.16-0.05-0.58-0.07-1.25-0.07
        c-0.37,0-0.56-0.09-0.56-0.28c0-0.18,0.17-0.28,0.52-0.28h2.74c1.18,0.02,2.07,0.02,2.67,0h0.28
        C506.08,338.59,506.19,338.68,506.19,338.86z M494.3,340.11c0-0.62-0.56-0.93-1.67-0.93c-1.13,0-1.7,0.21-1.7,0.62
        c0,0.57,0.55,2.04,1.67,4.41C493.73,341.87,494.3,340.5,494.3,340.11z"
        />
        <path
            className="st0"
            d="M528.25,356.49c0,0.05-0.01,1.12-0.03,3.23c-0.02,1.11-0.04,1.91-0.05,2.39c-0.01,0.48-0.02,0.72-0.02,0.69
        c-6.11-0.28-11.45-0.36-16.03-0.24h-2.92c-0.42,0-0.62-0.09-0.62-0.26c0-0.13,0.05-0.21,0.16-0.23c0.11-0.02,0.46-0.06,1.06-0.1
        c1.09-0.07,1.68-0.38,1.77-0.93c0.05-0.3,0.07-0.64,0.07-1v-17.56c0-1.38-0.01-2.15-0.03-2.29c-0.02-0.37-0.14-0.62-0.35-0.76
        c-0.21-0.14-0.64-0.21-1.28-0.21c-0.72,0-1.07-0.1-1.07-0.31c0-0.23,0.32-0.34,0.95-0.34c0.64,0,1.52-0.01,2.65-0.04
        c4.25-0.09,7.74-0.12,10.44-0.07h2.36c0.51,0,1.13-0.03,1.87-0.1l0.31,3.78c0.12,1.2,0.17,1.94,0.17,2.22
        c0,0.23-0.12,0.35-0.35,0.35c-0.23,0-0.38-0.3-0.45-0.9c-0.21-1.59-0.85-2.76-1.93-3.49c-1.08-0.73-2.67-1.09-4.78-1.09
        c-0.65,0-1.76,0.04-3.34,0.11v10.23c2.55,0.02,4.16-0.16,4.83-0.54c0.66-0.38,1.11-1.37,1.34-2.97c0.12-0.85,0.29-1.28,0.52-1.28
        c0.21,0,0.31,0.21,0.31,0.62s-0.03,1.27-0.1,2.57c-0.02,0.44-0.03,1.03-0.03,1.77c0,1.99,0.02,3.49,0.07,4.51
        c0.02,0.14,0.04,0.31,0.04,0.52c0,0.28-0.11,0.42-0.31,0.42c-0.16,0-0.27-0.05-0.31-0.16c-0.05-0.1-0.12-0.48-0.21-1.13
        c-0.23-1.64-0.55-2.66-0.96-3.07c-0.41-0.4-1.34-0.61-2.81-0.61h-2.37v11.66h2.23c2.55-0.05,4.11-0.1,4.66-0.17
        c0.7-0.09,1.37-0.35,2.02-0.76c0.58-0.46,0.98-0.96,1.2-1.49s0.46-1.51,0.71-2.95c0.07-0.35,0.19-0.52,0.35-0.52
        C528.16,355.97,528.25,356.14,528.25,356.49z"
        />
        <path
            className="st0"
            d="M556.32,350.42c0,2.64-0.6,4.91-1.8,6.83c-1.25,2.01-3.06,3.48-5.45,4.4c-1.62,0.63-4.04,0.94-7.25,0.94
        c-0.05,0-0.3,0-0.76,0c-0.46,0-1.13,0-2.01,0h-1.25c-0.05,0-0.8,0-2.26,0h-2.18c-0.35,0-0.52-0.09-0.52-0.28
        c0-0.23,0.32-0.33,0.97-0.31c0.99,0.02,1.6-0.15,1.8-0.52c0.09-0.16,0.14-0.87,0.14-2.12v-17.66c0-1.02-0.07-1.64-0.21-1.87
        c-0.23-0.42-0.82-0.61-1.77-0.59c-0.51,0.02-0.76-0.09-0.76-0.35c0-0.21,0.16-0.31,0.48-0.31h0.63c1.39,0,2.73,0.01,4.02,0.03
        c1.85,0.02,3.28,0.04,4.3,0.04c4.21,0,7.43,0.87,9.68,2.6C554.92,343.43,556.32,346.48,556.32,350.42z M550.32,350.43
        c0-3.82-0.57-6.62-1.7-8.39c-1.13-1.77-2.91-2.66-5.34-2.66c-0.88,0-1.46,0.09-1.73,0.28c-0.37,0.23-0.55,0.78-0.55,1.63v17.79
        c0,1.53,0.09,2.37,0.28,2.54c0.28,0.26,0.89,0.38,1.84,0.38C547.91,362,550.32,358.15,550.32,350.43z"
        />
        <path
            className="st0"
            d="M584.62,350.42c0,2.64-0.6,4.91-1.8,6.83c-1.25,2.01-3.06,3.48-5.45,4.4c-1.62,0.63-4.04,0.94-7.25,0.94
        c-0.05,0-0.3,0-0.76,0c-0.46,0-1.13,0-2.01,0h-1.25c-0.05,0-0.8,0-2.26,0h-2.18c-0.35,0-0.52-0.09-0.52-0.28
        c0-0.23,0.32-0.33,0.97-0.31c0.99,0.02,1.6-0.15,1.8-0.52c0.09-0.16,0.14-0.87,0.14-2.12v-17.66c0-1.02-0.07-1.64-0.21-1.87
        c-0.23-0.42-0.82-0.61-1.77-0.59c-0.51,0.02-0.76-0.09-0.76-0.35c0-0.21,0.16-0.31,0.48-0.31h0.63c1.39,0,2.73,0.01,4.02,0.03
        c1.85,0.02,3.28,0.04,4.3,0.04c4.21,0,7.43,0.87,9.68,2.6C583.22,343.43,584.62,346.48,584.62,350.42z M578.62,350.43
        c0-3.82-0.57-6.62-1.7-8.39c-1.13-1.77-2.91-2.66-5.34-2.66c-0.88,0-1.46,0.09-1.73,0.28c-0.37,0.23-0.55,0.78-0.55,1.63v17.79
        c0,1.53,0.09,2.37,0.28,2.54c0.28,0.26,0.89,0.38,1.84,0.38C576.22,362,578.62,358.15,578.62,350.43z"
        />
        <path
            className="st0"
            d="M600.48,362.3c0,0.2-0.15,0.29-0.45,0.29c-0.16,0-0.31-0.01-0.45-0.03c-1.39-0.07-2.58-0.1-3.57-0.1
        c-1.04,0-2.57,0.03-4.58,0.1c-0.67,0.02-1.17,0.03-1.49,0.03c-0.35,0-0.52-0.1-0.52-0.31c0-0.12,0.06-0.19,0.19-0.21
        c0.13-0.02,0.57-0.05,1.34-0.07c0.72-0.14,1.13-0.35,1.25-0.64c0.12-0.29,0.17-1.22,0.17-2.79v-16.68c0-0.44,0-0.87,0-1.28
        c-0.02-0.42-0.03-0.61-0.03-0.59c0-0.58-0.58-0.87-1.74-0.87c-0.65,0-0.97-0.08-0.97-0.24c0-0.16,0.05-0.26,0.14-0.28
        c0.09-0.02,0.39-0.03,0.9-0.03c-0.23,0,0.19,0,1.25,0c1.06,0,1.98,0,2.74,0h1.77c0.37,0,0.89,0,1.58,0c0.68,0,1.16,0,1.44,0h0.35
        c0.3,0,0.45,0.09,0.45,0.26c0,0.13-0.05,0.21-0.16,0.25c-0.1,0.03-0.46,0.06-1.06,0.08c-0.72,0.05-1.16,0.2-1.32,0.45l-0.1,0.66
        v19.57c0,0.99,0.11,1.58,0.33,1.77c0.22,0.19,0.96,0.31,2.24,0.38C600.37,362.03,600.48,362.13,600.48,362.3z"
        />
        <path
            className="st0"
            d="M627.43,338.93c0,0.12-0.09,0.19-0.26,0.21c-0.17,0.02-0.78,0.06-1.82,0.1c-0.61,0.02-0.96,0.15-1.05,0.38
        c-0.09,0.14-0.13,0.88-0.1,2.22v4.03c0,2.68,0,6.19,0,10.51v5.9c0,0.39-0.08,0.59-0.24,0.59c-0.26,0-1.94-1.91-5.05-5.74
        c-3.11-3.83-6.53-8.2-10.25-13.13v2.57c0,0.88,0,1.64,0,2.29c0,0.65,0,1.04,0,1.18v10.79c0,0.48,0.15,0.79,0.45,0.9
        c0.49,0.19,1.06,0.28,1.72,0.28c0.77,0,1.2,0.06,1.3,0.18c0.02,0.02,0.04,0.07,0.04,0.14c0,0.19-0.17,0.28-0.52,0.28
        c-0.21,0-0.38-0.01-0.52-0.03c-1.39-0.05-2.26-0.07-2.6-0.07c-0.81,0-1.87,0.02-3.19,0.07c-0.65,0.02-0.93,0.03-0.83,0.03
        c-0.35,0-0.52-0.09-0.52-0.28c0-0.16,0.51-0.28,1.53-0.35c1.18-0.09,1.86-0.28,2.05-0.55c0.12-0.19,0.17-1.02,0.17-2.49v-14.24
        c0-1.45-0.02-2.33-0.07-2.63c-0.14-1.02-0.54-1.76-1.21-2.22c-0.51-0.34-1.46-0.54-2.85-0.59c-0.37-0.02-0.55-0.14-0.55-0.33
        c0-0.22,0.16-0.33,0.48-0.33c0.14,0,0.64,0.02,1.49,0.07c0.42,0.02,1.04,0.03,1.87,0.03c1.71,0,3.1-0.03,4.16-0.1l12.18,15.68
        V340.5c0-0.56-0.09-0.91-0.28-1.06c-0.19-0.15-0.58-0.24-1.18-0.26l-1.49-0.07c-0.28-0.02-0.41-0.1-0.41-0.24
        c0-0.19,0.21-0.28,0.62-0.28h0.76c0.14,0,0.37,0,0.69,0c0.3,0,0.57,0,0.8,0c2.34,0,3.7,0.01,4.09,0.03
        C627.23,338.65,627.43,338.75,627.43,338.93z"
        />
        <path
            className="st0"
            d="M654.17,355.12c0,0.22-0.43,0.32-1.3,0.29c-1.03-0.02-1.58,0.21-1.65,0.69c-0.05,0.28-0.07,1.19-0.07,2.73
        c0,0.53,0,1,0,1.42c-2.75,1.87-5.38,2.8-7.88,2.8c-3.28,0-6.03-1.16-8.24-3.47c-2.21-2.31-3.31-5.19-3.31-8.64
        c0-3.65,1.13-6.69,3.4-9.12c2.27-2.43,5.11-3.64,8.53-3.64c1.41,0,2.87,0.35,4.37,1.04c0.55,0.26,0.94,0.38,1.14,0.38
        c0.37,0,0.68-0.28,0.94-0.83c0.12-0.28,0.24-0.42,0.38-0.42c0.16,0,0.24,0.12,0.24,0.35c0,0.05-0.04,0.51-0.11,1.39
        c-0.02,0.28-0.03,0.94-0.03,1.98c0,0.79,0.05,1.99,0.14,3.61c0,0.44-0.12,0.66-0.35,0.66c-0.32,0-0.54-0.46-0.66-1.39
        c-0.28-2.03-0.95-3.64-2.01-4.82c-0.79-0.85-1.89-1.28-3.3-1.28c-4.37,0-6.56,3.89-6.56,11.66c0,4.83,0.72,8.2,2.16,10.09
        c0.9,1.2,2.11,1.8,3.62,1.8c1.9,0,2.86-1.2,2.86-3.61c0-1.81-0.08-2.82-0.23-3.04c-0.15-0.22-0.54-0.33-1.18-0.33h-0.88
        c-0.49,0-0.74-0.1-0.74-0.31c0-0.21,0.2-0.31,0.59-0.31c0.81,0,1.83,0.01,3.05,0.03h2.22c0.44,0,1.14,0,2.1,0
        c0.96,0,1.58,0,1.86,0h0.45C654.03,354.82,654.17,354.92,654.17,355.12z"
        />
        </g>
        <g>
        <path
            className="st0"
            d="M522.57,430.61c0,2.1-0.51,3.83-1.53,5.18c-1.02,1.35-2.32,2.03-3.88,2.03c-1.57,0-2.91-0.71-4.01-2.14
        c-1.11-1.42-1.66-3.14-1.66-5.16c0-2.69,0.84-4.76,2.53-6.22c0.88-0.76,1.92-1.14,3.13-1.14c1.09,0,2.02,0.3,2.78,0.89
        c0.81,0.63,1.45,1.54,1.93,2.72C522.33,427.95,522.57,429.23,522.57,430.61z M519.01,430.24c0-3.05-0.22-5.02-0.67-5.93
        c-0.26-0.52-0.68-0.78-1.25-0.78c-0.73,0-1.25,0.51-1.55,1.52c-0.33,1.11-0.5,2.74-0.5,4.89c0,3.42,0.32,5.66,0.95,6.71
        c0.32,0.53,0.71,0.8,1.19,0.8c0.72,0,1.2-0.51,1.45-1.54C518.88,434.83,519.01,432.94,519.01,430.24z"
        />
        <path
            className="st0"
            d="M535.31,437.41c0,0.12-0.19,0.17-0.56,0.17h-0.52c-0.2-0.02-0.99-0.02-2.38,0h-2.7c-0.17,0-0.38,0-0.6,0
        c-0.2,0-0.32,0-0.35,0c-0.36,0-0.54-0.06-0.54-0.19c0-0.09,0.04-0.14,0.11-0.15c0.07-0.01,0.35-0.02,0.83-0.02
        c0.63-0.01,1.01-0.09,1.16-0.24c0.09-0.13,0.13-0.32,0.13-0.58v-8c0-1.71-0.02-2.63-0.04-2.78c-0.04-0.23-0.24-0.34-0.6-0.34
        h-1.09c-0.37,0.01-0.56-0.04-0.56-0.17c0-0.09,0.24-0.15,0.71-0.19c1.22-0.1,2.26-0.4,3.12-0.91c0.04-0.03,0.3-0.19,0.77-0.5
        l0.82-0.5l0.09,0.32c0,0.04,0,0.16,0,0.34v10.47c0,1.31,0,2.05,0,2.22c0.01,0.58,0.3,0.86,0.86,0.84
        C534.86,437.19,535.31,437.25,535.31,437.41z"
        />
        <path
            className="st0"
            d="M560.43,437.41c0,0.12-0.19,0.17-0.56,0.17h-0.52c-0.2-0.02-0.99-0.02-2.38,0h-2.7c-0.17,0-0.38,0-0.6,0
        c-0.2,0-0.32,0-0.35,0c-0.36,0-0.54-0.06-0.54-0.19c0-0.09,0.04-0.14,0.11-0.15c0.07-0.01,0.35-0.02,0.83-0.02
        c0.63-0.01,1.01-0.09,1.16-0.24c0.09-0.13,0.13-0.32,0.13-0.58v-8c0-1.71-0.02-2.63-0.04-2.78c-0.04-0.23-0.24-0.34-0.6-0.34
        h-1.09c-0.37,0.01-0.56-0.04-0.56-0.17c0-0.09,0.24-0.15,0.71-0.19c1.22-0.1,2.26-0.4,3.12-0.91c0.04-0.03,0.3-0.19,0.77-0.5
        l0.82-0.5l0.09,0.32c0,0.04,0,0.16,0,0.34v10.47c0,1.31,0,2.05,0,2.22c0.01,0.58,0.3,0.86,0.86,0.84
        C559.98,437.19,560.43,437.25,560.43,437.41z"
        />
        <path
            className="st0"
            d="M576.27,430.61c0,2.1-0.51,3.83-1.53,5.18c-1.02,1.35-2.32,2.03-3.88,2.03c-1.57,0-2.91-0.71-4.01-2.14
        c-1.11-1.42-1.66-3.14-1.66-5.16c0-2.69,0.84-4.76,2.53-6.22c0.88-0.76,1.92-1.14,3.13-1.14c1.09,0,2.02,0.3,2.78,0.89
        c0.81,0.63,1.45,1.54,1.93,2.72C576.03,427.95,576.27,429.23,576.27,430.61z M572.71,430.24c0-3.05-0.22-5.02-0.67-5.93
        c-0.26-0.52-0.68-0.78-1.25-0.78c-0.73,0-1.25,0.51-1.55,1.52c-0.33,1.11-0.5,2.74-0.5,4.89c0,3.42,0.32,5.66,0.95,6.71
        c0.32,0.53,0.71,0.8,1.19,0.8c0.72,0,1.2-0.51,1.45-1.54C572.58,434.83,572.71,432.94,572.71,430.24z"
        />
        <path
            className="st0"
            d="M601.16,432.79c0,0.12-0.01,0.25-0.04,0.41c-0.22,1.22-0.38,2.7-0.5,4.42c-1.73-0.06-3.41-0.09-5.05-0.09
        c-0.09,0-0.26,0.01-0.52,0.01c-0.35,0.01-0.63,0.01-0.86,0.01l-2.87,0.05c-0.1,0-0.21,0.01-0.32,0.02h-0.17
        c-0.52,0-0.78-0.09-0.78-0.26c0-0.11,0.11-0.26,0.32-0.43c1.75-1.39,3.24-2.76,4.46-4.11c1.22-1.34,1.82-3.03,1.82-5.05
        c0-1.35-0.32-2.39-0.97-3.1c-0.46-0.5-1.08-0.75-1.86-0.75c-0.65,0-1.18,0.18-1.61,0.55c-0.42,0.37-0.64,0.75-0.64,1.16
        c0,0.23,0.1,0.37,0.3,0.43c0.07,0.02,0.28,0.04,0.62,0.06c0.44,0.03,0.8,0.19,1.07,0.49c0.27,0.3,0.41,0.67,0.41,1.11
        c0,0.45-0.13,0.81-0.39,1.09c-0.26,0.28-0.59,0.42-1.01,0.42c-0.54,0-0.98-0.21-1.32-0.63c-0.34-0.42-0.51-0.97-0.51-1.66
        c0-1.18,0.4-2.11,1.2-2.77c0.8-0.67,1.9-1,3.29-1c1.44,0,2.61,0.4,3.52,1.2c0.91,0.8,1.36,1.83,1.36,3.09
        c0,2.48-2.3,4.98-6.89,7.5h0.71h1.96c1.57-0.01,2.58-0.05,3.04-0.11c0.62-0.06,1.04-0.2,1.25-0.44c0.16-0.19,0.3-0.58,0.41-1.18
        c0.09-0.49,0.2-0.74,0.34-0.74C601.1,432.49,601.16,432.59,601.16,432.79z"
        />
        <path
            className="st0"
            d="M615.45,432.79c0,0.12-0.01,0.25-0.04,0.41c-0.22,1.22-0.38,2.7-0.5,4.42c-1.73-0.06-3.41-0.09-5.05-0.09
        c-0.09,0-0.26,0.01-0.52,0.01c-0.35,0.01-0.63,0.01-0.86,0.01l-2.87,0.05c-0.1,0-0.21,0.01-0.32,0.02h-0.17
        c-0.52,0-0.78-0.09-0.78-0.26c0-0.11,0.11-0.26,0.32-0.43c1.75-1.39,3.24-2.76,4.46-4.11c1.22-1.34,1.82-3.03,1.82-5.05
        c0-1.35-0.32-2.39-0.97-3.1c-0.46-0.5-1.08-0.75-1.86-0.75c-0.65,0-1.18,0.18-1.61,0.55c-0.42,0.37-0.64,0.75-0.64,1.16
        c0,0.23,0.1,0.37,0.3,0.43c0.07,0.02,0.28,0.04,0.62,0.06c0.44,0.03,0.8,0.19,1.07,0.49c0.27,0.3,0.41,0.67,0.41,1.11
        c0,0.45-0.13,0.81-0.39,1.09c-0.26,0.28-0.59,0.42-1.01,0.42c-0.54,0-0.98-0.21-1.32-0.63c-0.34-0.42-0.51-0.97-0.51-1.66
        c0-1.18,0.4-2.11,1.2-2.77c0.8-0.67,1.9-1,3.29-1c1.44,0,2.61,0.4,3.52,1.2c0.91,0.8,1.36,1.83,1.36,3.09
        c0,2.48-2.3,4.98-6.89,7.5h0.71h1.96c1.57-0.01,2.58-0.05,3.04-0.11c0.62-0.06,1.04-0.2,1.25-0.44c0.16-0.19,0.3-0.58,0.41-1.18
        c0.09-0.49,0.2-0.74,0.34-0.74C615.38,432.49,615.45,432.59,615.45,432.79z"
        />
        </g>
        <circle className="st0" cx="542.69" cy="430.8" r="1.84" />
        <circle className="st0" cx="583.93" cy="430.8" r="1.84" />
        <g>
        <path
            className="st0"
            d="M471.31,199.41c5.54,5.54,9.77,11.85,12.69,18.91c2.92,7.07,4.38,14.5,4.38,22.29v15.46
        c0,7.76-1.46,15.17-4.38,22.24c-2.92,7.07-7.15,13.37-12.69,18.91c-9.74,9.61-21.33,15.18-34.76,16.72
        c-0.77,0.07-3.89,0.13-9.35,0.17c-5.46,0.05-11.64,0.1-18.54,0.15c-6.9,0.05-15.67,0.11-26.32,0.18c1.04,0,1.88-0.57,2.52-1.71
        c0.64-1.14,1.13-2.58,1.49-4.31c0.35-1.73,0.6-3.53,0.73-5.42c0.03-0.7,0.05-6.59,0.05-17.66c0-11.06,0-23.4,0-37
        c0-13.6,0-25.93,0-37c0-11.07-0.02-16.95-0.05-17.66c-0.13-1.88-0.38-3.68-0.73-5.39c-0.35-1.71-0.85-3.14-1.49-4.28
        c-0.64-1.14-1.48-1.71-2.52-1.71h47.75c3.69,0,7.32,0.34,10.88,1.01C452.6,185.56,462.71,190.92,471.31,199.41z M426.07,184.35
        h-21.05c-0.03,0-0.08,0.06-0.13,0.17c-0.05,0.12-0.11,0.27-0.18,0.46c-0.07,0.18-0.14,0.36-0.23,0.53
        c-0.09,0.17-0.14,0.3-0.18,0.4c-0.71,2.18-1.16,4.65-1.36,7.4c-0.07,0.8-0.12,1.6-0.15,2.37c0,0.64,0,6.12,0,16.45
        c0,10.32-0.01,22.26-0.03,35.82c-0.02,13.55-0.03,30.87-0.03,51.96c0,0.14,0.02,0.44,0.05,0.91c0.03,0.47,0.07,0.95,0.1,1.44
        c0.03,0.49,0.05,0.88,0.05,1.18c0.2,2.75,0.65,5.22,1.36,7.41c0.07,0.2,0.15,0.43,0.25,0.68c0.1,0.25,0.19,0.46,0.28,0.63
        c0.08,0.17,0.14,0.25,0.18,0.25l25.09-0.1c1.01,0,2.02-0.03,3.05-0.1c1.02-0.07,1.91-0.13,2.67-0.2c0.76-0.07,1.18-0.1,1.29-0.1
        c2.45-0.5,4.52-1.22,6.19-2.14c1.68-0.92,2.74-1.57,3.17-1.94c0.03-0.03,0.06-0.06,0.08-0.08c0.02-0.02,0.03-0.03,0.05-0.05
        c0.02-0.02,0.04-0.03,0.08-0.03c4.8-3.76,8.96-8.2,12.47-13.32c3.51-5.12,6.24-10.76,8.19-16.9c1.95-6.14,2.92-12.63,2.92-19.44
        v-16.57c0-7.76-1.25-15.09-3.75-21.99c-2.5-6.9-5.99-13.07-10.45-18.51s-9.69-9.92-15.66-13.45c-1.85-1.01-3.67-1.73-5.47-2.17
        c-1.8-0.44-3.3-0.71-4.51-0.8c0-0.03,0-0.03,0,0C429.03,184.4,427.58,184.35,426.07,184.35z"
        />
        <path
            className="st0"
            d="M562.03,306.51c-0.17,0.3-0.44,0.8-0.8,1.49c-0.37,0.69-0.79,1.45-1.26,2.29c-0.5,0.94-0.97,1.8-1.38,2.57
        c-0.42,0.77-0.72,1.31-0.88,1.61c-2.22,0.1-4.12,0.12-5.72,0.05c-1.6-0.07-3.15-0.24-4.66-0.53c-1.51-0.29-2.7-0.76-3.58-1.44
        c-1.54-1.38-2.46-3.11-2.74-5.21c-0.29-2.1-0.36-4.21-0.23-6.32c0.03-0.8,0.05-1.56,0.05-2.27c-2.05,4.16-4.99,7.55-8.82,10.15
        c-3.83,2.6-8.03,4.26-12.59,4.96c-4.16,0.67-8.32,0.55-12.47-0.35c-4.15-0.91-7.87-2.72-11.16-5.44
        c-3.39-2.95-5.67-6.56-6.83-10.81c-1.16-4.25-0.85-8.47,0.93-12.67c2.02-4.1,4.97-7.32,8.87-9.67c3.9-2.35,7.94-4.22,12.14-5.59
        c4.63-1.64,9.27-3.27,13.9-4.88c5.34-1.85,10.66-3.71,15.97-5.59c0-4.33,0-8.65,0-12.95c0-0.87,0.02-1.76,0.05-2.67
        c0.17-2.35,0.08-4.65-0.25-6.9c-0.6-2.75-1.9-4.64-3.88-5.67c-1.98-1.02-4.25-1.6-6.8-1.74c-4.13-0.37-8.34,0.03-12.62,1.18
        c-4.28,1.16-7.85,3.33-10.7,6.52c-0.34-0.71-0.67-1.39-1.01-2.07c-1.24-2.49-2.47-4.97-3.68-7.46l-0.1-0.25
        c2.01-0.13,4.05-0.29,6.1-0.45c5.57-0.54,11.18-0.74,16.82-0.6c5.64,0.14,11.01,1.31,16.12,3.53c4.63,2.08,8.35,5.13,11.13,9.14
        c2.79,4.02,4.26,8.57,4.43,13.68c0.07,4.26,0.09,10.22,0.08,17.88c-0.02,7.66-0.04,14.43-0.08,20.3c0,3.46,0,5.76,0,6.9
        c0,0.2,0,0.39,0,0.55c-0.03,1.44,0.03,2.93,0.2,4.46c0.17,1.53,0.66,2.75,1.46,3.65C558.85,306.81,560.18,307.01,562.03,306.51z
            M540.06,295.72c0.23-0.57,0.47-1.14,0.71-1.71v-33.04c-1.38,0.47-2.75,0.96-4.13,1.46c-3.02,1.08-6.05,2.15-9.07,3.22
        c-1.28,0.44-2.57,0.86-3.88,1.26c-2.69,0.74-5.27,1.7-7.76,2.87c-2.89,1.58-5.22,3.91-6.98,7c-1.76,3.09-2.83,6.23-3.2,9.42
        c-0.57,6.38,1.01,12.17,4.73,17.38c1.85,2.52,4.1,4.59,6.75,6.2c1.58,0.87,3.21,1.25,4.89,1.13c1.68-0.12,3.31-0.54,4.89-1.28
        c3.06-1.38,5.66-3.28,7.81-5.72C536.98,301.48,538.72,298.75,540.06,295.72z"
        />
        <path
            className="st0"
            d="M623.38,314.41c1.14,0,2.05-0.68,2.72-2.04c0.67-1.36,1.17-3.04,1.49-5.04s0.53-4,0.63-6.02v-58.78
        c0-3.16-0.45-5.72-1.36-7.68c-0.91-1.96-2.07-3.47-3.5-4.51c-1.43-1.04-2.95-1.75-4.56-2.14c-1.61-0.39-3.14-0.57-4.59-0.55
        c-1.44,0.02-2.65,0.11-3.63,0.28c-4.43,0.81-8.36,1.94-11.79,3.4c-3.42,1.46-6.31,2.95-8.66,4.46c-2.92,1.88-5.24,3.61-6.95,5.19
        v58.63c0.03,2.08,0.2,4.26,0.5,6.52c0.3,2.27,0.8,4.22,1.49,5.84c0.69,1.63,1.65,2.44,2.9,2.44h-25.29c1.14,0,2.05-0.68,2.72-2.04
        c0.67-1.36,1.17-3.04,1.49-5.04s0.53-4,0.63-6.02v-46.39c0-2.45-0.06-4.59-0.18-6.42c-0.12-1.83-0.28-3.39-0.48-4.69
        c-0.2-1.29-0.43-2.37-0.68-3.22c-0.25-0.86-0.52-1.53-0.8-2.01c-0.29-0.49-0.55-0.85-0.81-1.08c-0.25-0.23-0.49-0.38-0.7-0.43
        c-0.22-0.05-0.4-0.07-0.55-0.05c-0.15,0.02-0.23,0.04-0.23,0.08l4.43-2.47l15.57-8.61v12.29c1.58-1.31,3.51-2.7,5.79-4.18
        c3.26-2.15,7.49-4.16,12.69-6.02c5.2-1.86,11.28-2.88,18.24-3.05c3.05-0.03,5.82,0.29,8.31,0.96c4.03,1.11,7.32,3.11,9.87,5.99
        c2.15,2.59,3.63,5.33,4.43,8.24c0.81,2.9,1.21,5.5,1.21,7.78c0.03,1.01,0.03,1.88,0,2.62v48.96c0.07,2.08,0.25,4.26,0.55,6.52
        c0.3,2.27,0.8,4.22,1.49,5.84c0.69,1.63,1.65,2.44,2.9,2.44H623.38z"
        />
        <path
            className="st0"
            d="M655.02,292.1v-27.4v-9.77c0-2.45-0.06-4.59-0.18-6.42c-0.12-1.83-0.28-3.39-0.48-4.69
        c-0.2-1.29-0.43-2.37-0.68-3.22c-0.25-0.86-0.52-1.53-0.8-2.01c-0.29-0.49-0.55-0.85-0.81-1.08c-0.25-0.23-0.49-0.38-0.7-0.43
        c-0.22-0.05-0.4-0.07-0.55-0.05c-0.15,0.02-0.23,0.04-0.23,0.08l4.43-2.47l15.57-8.61v38.69v27.4v7.51
        c0.03,2.08,0.2,4.26,0.5,6.52c0.3,2.27,0.8,4.22,1.49,5.84c0.69,1.63,1.65,2.44,2.9,2.44h-25.29c1.14,0,2.05-0.68,2.72-2.04
        c0.67-1.36,1.17-3.04,1.49-5.04s0.53-4,0.63-6.02V292.1z M660.56,215.73c-2.52,0-4.67-0.9-6.47-2.7c-1.8-1.8-2.7-3.96-2.7-6.47
        c0-2.52,0.9-4.67,2.7-6.47c1.8-1.8,3.95-2.7,6.47-2.7c2.52,0,4.68,0.9,6.47,2.7c1.8,1.8,2.7,3.96,2.7,6.47
        c0,2.52-0.9,4.68-2.7,6.47C665.23,214.83,663.08,215.73,660.56,215.73z"
        />
        <path
            className="st0"
            d="M741.61,279.41c2.25,4.03,3.22,8.21,2.92,12.54c-0.3,4.33-1.85,8.35-4.63,12.04
        c-2.99,3.73-6.64,6.45-10.96,8.16c-4.32,1.71-8.83,2.49-13.53,2.32c-7.22-0.44-13.99-2.42-20.3-5.94
        c-1.75-0.94-3.44-1.96-5.09-3.07h-0.05c-0.37-0.27-0.76-0.52-1.16-0.76c-2.02-1.38-4.03-2.77-6.05-4.18l-5.04-3.78l6.9-6.9
        c1.11,4.43,3.23,8.35,6.37,11.76c3.14,3.41,6.89,5.77,11.26,7.08c2.28,0.6,4.58,0.64,6.9,0.1c4.6-0.87,8.61-2.87,12.04-5.99
        c3.02-2.95,4.78-6.31,5.26-10.07c0.49-3.76-0.41-7.42-2.7-10.98c-2.58-3.66-5.82-6.39-9.69-8.18c-3.88-1.8-7.92-3.28-12.12-4.46
        v0.05c-2.38-0.74-4.74-1.54-7.08-2.39c-2.33-0.86-4.58-1.9-6.72-3.15c-0.74-0.27-1.46-0.67-2.17-1.21
        c-0.71-0.54-1.36-1.07-1.96-1.61c-0.1-0.1-0.22-0.2-0.35-0.3c-1.55-1.31-2.89-2.82-4.03-4.53c-2.28-3.56-3.17-7.44-2.67-11.64
        c0.71-4.63,2.7-8.49,5.97-11.56c3.27-3.07,7.14-5.1,11.61-6.07c3.93-0.74,7.89-1.04,11.89-0.91c4.43-0.03,8.73,0.67,12.9,2.12
        c3.53,1.34,6.82,3.11,9.87,5.29c2.32,1.65,4.4,3.53,6.25,5.64l-4.68,4.13c-1.68-3.93-4.13-7.29-7.35-10.07
        c-3.22-2.99-7.02-4.63-11.39-4.94c-0.17-0.03-0.34-0.05-0.5-0.05c-2.08-0.2-4.15-0.1-6.2,0.3c-3.39,0.84-6.03,2.7-7.91,5.59
        c-1.88,3.36-2.69,6.99-2.42,10.88c0.34,4,1.98,7.35,4.94,10.07c2.32,2.15,4.88,3.8,7.68,4.96c2.8,1.16,5.68,2.17,8.64,3.05
        c1.68,0.5,3.34,1.04,4.99,1.61c4.16,1.41,8.03,3.31,11.59,5.69S739.32,275.54,741.61,279.41z"
        />
        </g>
        <path
        className="st0"
        d="M744.58,392.17H565.47c-0.33-0.78-1.11-1.33-2.01-1.33s-1.67,0.55-2.01,1.33H382.35v1.72h179.11
    c0.33,0.78,1.11,1.33,2.01,1.33s1.67-0.55,2.01-1.33h179.11V392.17z"
        />
    </g>
</svg>